<svg width="197" height="17" viewBox="0 0 197 17" fill="none" xmlns="http://www.w3.org/2000/svg">
<path fill-rule="evenodd" clip-rule="evenodd" d="M9.035 0L17.35 16.6861H14.4575L11.5667 10.3897H4.69943L1.807 16.6861H0L8.31343 0H9.035ZM11.2043 9.1299L7.94957 3.14617L5.05868 9.1299H11.2043ZM28.1935 15.4262C27.1096 16.3708 25.3011 17 23.4941 17L20.964 16.6874L19.157 15.4276L19.5193 13.5385H19.8801C20.964 15.1123 22.4102 16.0568 24.2172 16.0568C25.3011 16.0568 26.0242 15.7442 26.7473 14.7997C27.4704 14.1704 27.8312 13.2233 27.8312 12.2814C27.8312 11.3342 27.4704 10.705 26.7473 10.0771L23.8564 8.81729C22.4102 8.50468 21.3263 7.87277 20.964 7.56016C19.8801 6.61564 19.5193 5.67112 19.5193 4.7266C19.5193 3.15018 20.2409 2.20566 21.3263 1.26114C22.4117 0.316621 23.4956 0.00401585 25.3026 0.00401585C27.1112 0.00401585 28.1951 0.316621 29.2789 1.26114L28.5558 3.15018C27.8327 1.57643 26.7488 0.948525 24.9418 0.948525C23.8579 0.948525 23.1348 1.26114 22.774 1.89304C22.0509 2.20566 21.6886 2.83756 21.6886 3.78208C21.6886 4.7266 22.0494 5.67112 22.774 6.30035L26.0273 7.24487C27.1127 7.87411 28.1966 8.50468 28.9197 8.81863C29.6428 9.45053 30.0036 10.395 30.0036 11.6522C30.0088 12.3548 29.8511 13.0511 29.5401 13.6996C29.2291 14.348 28.7712 14.9353 28.1935 15.4262ZM45.9058 0.944519L46.2666 1.88904L40.4833 1.57375V16.6861H37.9532V1.57375L31.8075 1.88904L32.1683 0.944519L31.8075 0.312614H46.2666L45.9058 0.944519ZM51.6876 14.1691C53.1338 15.4262 54.9408 16.0555 56.7478 16.0555C59.2779 16.0555 61.4473 15.111 62.8935 13.2219C63.9789 11.6482 64.7005 10.0758 64.3382 8.50201C64.3382 6.29769 63.9774 4.40865 62.8935 3.14751C61.4473 1.57376 59.6403 0.629234 57.1086 0.629234C54.5785 0.629234 52.77 1.57376 51.3253 3.14751C50.1362 4.85632 49.5105 6.81695 49.5168 8.81461C49.5198 11.0189 50.2429 12.908 51.6876 14.1691ZM46.6274 8.50067C46.6274 5.97973 47.7128 3.77808 49.5183 2.20165C51.3268 0.627901 53.8569 0 56.7478 0C59.6403 0 62.1704 0.629235 63.9774 1.88904C66.1451 3.46279 67.2306 5.35183 67.2306 8.18539C67.2306 11.0189 66.1452 12.908 64.3382 14.4817C62.5312 16.0555 60.001 17 56.7478 17C53.8569 17 51.3268 16.3708 49.5183 14.7983C47.7144 13.2219 46.6274 11.0189 46.6274 8.50067ZM87.1122 16.6861H86.0268L73.0139 3.77808H72.6531V16.6861H71.2084V0.312614H72.2923L85.3052 12.5914V0.312614H87.1122V16.6861ZM101.57 0.31395C104.823 5.66845 107.355 9.75913 109.525 12.9093L117.478 0.31395H117.837L120.005 16.6874H117.478L116.033 4.40865C112.78 9.76047 110.249 13.8538 109.163 16.3721H108.801L106.995 13.8538L101.571 4.40865L100.489 16.6874H98.3181L101.21 0.31395H101.57ZM138.08 16.6861H136.635L133.741 10.3897H126.512L123.981 16.6861H121.814L130.488 0H131.214L139.164 16.6861H138.08ZM133.018 9.1299L130.127 3.14617L127.233 9.1299H133.018ZM144.588 1.25847V7.8701L148.202 7.55749C149.284 7.2422 150.01 6.92558 150.732 6.61297L151.817 4.40865C151.817 2.51961 150.732 1.57509 148.564 1.2598L144.588 1.25847ZM148.2 0.31395C152.177 0.31395 153.985 1.57376 153.985 4.09203C153.985 5.35183 153.262 6.29635 152.177 7.24087C151.094 7.8701 150.009 8.18539 148.563 8.50067L155.789 16.6861H152.898L145.669 8.81328H144.586V16.6861H142.415V0.312614L148.2 0.31395ZM161.936 16.6861V1.57375L156.151 1.88904V0.312614H169.887V1.88904L164.466 1.57375V16.6861H161.936ZM175.674 0.31395V16.6874H173.144V0.31395H175.674ZM196.998 16.6861H195.913L182.902 3.77808H182.539V16.6861H181.095V0.312614H181.818L195.191 12.5914V0.312614H197L196.998 16.6861Z" fill="white"/>
</svg>
