<svg width="85" height="24" viewBox="0 0 85 24" fill="none" xmlns="http://www.w3.org/2000/svg">
<path d="M46.8538 3.44059H38.146M46.8538 3.44059C46.7414 2.78334 46.9657 2.3141 47.2999 1.84446C47.7461 1.37523 48.5274 1.09361 49.6435 1.09361H83.3559C83.9144 0.999599 84.1377 1.28162 83.9144 1.75086L82.7979 3.25298C82.6865 3.34658 82.5746 3.44059 82.2394 3.44059M46.8538 3.44059H82.2394M38.146 3.44059C38.2579 2.78334 38.0346 2.3141 37.6999 1.84446C37.1418 1.37523 36.36 1.09361 35.3558 1.09361H1.64388C1.08537 0.999599 0.86253 1.28162 1.08537 1.75086L2.20145 3.25298C2.31287 3.34658 2.42524 3.44059 2.75997 3.44059M38.146 3.44059H2.75997M2.75997 3.44059H3.4299L3.54132 3.81622L4.6574 5.22393C4.76929 5.41195 4.99213 5.50595 5.32733 5.41195M5.32733 5.41195H5.88538L6.77862 6.91367C6.77862 7.00768 7.11335 7.10168 7.78329 7.2889L22.4066 10.6684L23.4113 12.1701C23.5232 12.4517 23.8579 12.7333 24.3045 12.8273L38.1465 15.8312L42.4999 12.7333L46.8538 15.8312M5.32733 5.41195L26.3139 4.56708M46.8538 15.8312L60.6957 12.8273C61.1419 12.7333 61.4771 12.4517 61.5885 12.1701L62.5932 10.6684L77.217 7.2889C77.8865 7.10129 78.2216 7.00728 78.2216 6.91367L79.1144 5.41195H79.6729M46.8538 15.8312V12.6393M79.6729 5.41195C80.0072 5.50556 80.2305 5.41195 80.3424 5.22393L81.459 3.81622L81.5699 3.44059H82.2394M79.6729 5.41195L58.5741 4.56708M7.44855 7.19529L26.3139 5.69317M14.2579 8.79142L25.532 6.63205M18.946 9.91791L26.202 7.38331M22.4066 10.7628L27.2071 8.22817M23.5232 12.4521L28.6579 9.16665M26.5372 13.297L30.1092 10.0115M29.3274 13.8602L31.7833 10.8564M32.1181 14.5179L33.6808 11.5136M35.132 15.1743L35.802 12.0773M38.146 15.6444V12.6397M42.4994 12.7337V7.2893M77.5522 7.19529L58.5745 5.69317M70.8533 8.79142L59.3559 6.63205M66.0538 9.91791L58.6864 7.2893M62.5932 10.7628L57.7936 8.22817M61.4771 12.4521L56.3424 9.16665M58.4631 13.297L54.7792 9.91791M55.672 13.8602L53.1051 10.8564M52.8808 14.5179L51.3186 11.5136M49.8678 15.1743L49.1973 12.0773M27.9885 8.6034L29.1045 7.38331M29.3274 9.54228L31.1134 7.2893M30.8906 10.4812L32.788 7.38331M32.6766 11.1384L34.5745 7.38331M34.7973 11.9829L36.6948 7.47692M37.3647 12.5461L38.5927 7.38331M39.8206 12.9221L40.3787 7.38331M57.0118 8.6034L55.8953 7.38331M55.672 9.54228L53.9978 7.38331M54.1097 10.4812L52.2113 7.38331M52.3237 11.1384L50.3144 7.38331M50.202 11.9829L48.3046 7.47692M47.6351 12.5461L46.4071 7.38331M45.1792 12.9221L44.6206 7.38331" stroke="#D0D1D3" stroke-width="1.3" stroke-miterlimit="2.613" stroke-linejoin="round"/>
<path fill-rule="evenodd" clip-rule="evenodd" d="M58.574 7.2893V3.44059H26.3138V7.2893H58.574Z" fill="black" stroke="#D0D1D3" stroke-width="1.3" stroke-miterlimit="2.613" stroke-linejoin="round"/>
<path d="M21.1787 1C22.9647 4.56748 25.7554 7.38331 29.5508 9.54228C33.458 11.7953 37.8109 12.9221 42.4995 12.9221C47.1876 12.9221 51.4296 11.7953 55.3378 9.63629C57.2352 8.60381 58.7984 7.2893 60.2482 5.88119C61.7 4.47308 62.8161 2.87735 63.7098 1.09361" stroke="#D0D1D3" stroke-width="1.3" stroke-miterlimit="2.613" stroke-linejoin="round"/>
<path fill-rule="evenodd" clip-rule="evenodd" d="M14.9273 18.1423L17.4951 23.1175H16.6019L15.7091 21.2402H13.5884L12.6951 23.1175H12.1371L14.7045 18.1423H14.9273ZM15.5972 20.8645L14.5921 19.0804L13.6993 20.8645H15.5972ZM20.8439 22.7419C20.5091 23.0235 19.9506 23.2111 19.3926 23.2111L18.6112 23.1179L18.0532 22.7423L18.1651 22.179H18.2765C18.6112 22.6483 19.0578 22.9299 19.6159 22.9299C19.9506 22.9299 20.1739 22.8367 20.3972 22.5551C20.6205 22.3675 20.732 22.085 20.732 21.8042C20.732 21.5218 20.6205 21.3342 20.3972 21.147L19.5045 20.7713C19.0578 20.6781 18.7231 20.4897 18.6112 20.3965C18.2765 20.1149 18.1651 19.8332 18.1651 19.5516C18.1651 19.0816 18.3879 18.8 18.7231 18.5183C19.0583 18.2367 19.393 18.1435 19.9511 18.1435C20.5096 18.1435 20.8443 18.2367 21.1791 18.5183L20.9557 19.0816C20.7324 18.6124 20.3977 18.4251 19.8397 18.4251C19.5049 18.4251 19.2816 18.5183 19.1702 18.7068C18.9469 18.8 18.835 18.9884 18.835 19.27C18.835 19.5516 18.9464 19.8332 19.1702 20.0209L20.1749 20.3025C20.5101 20.4901 20.8448 20.6781 21.0681 20.7717C21.2914 20.9601 21.4028 21.2418 21.4028 21.6166C21.4044 21.8261 21.3558 22.0337 21.2597 22.2271C21.1637 22.4204 21.0222 22.5955 20.8439 22.7419ZM26.3138 18.4239L26.4252 18.7056L24.6392 18.6116V23.1175H23.8578V18.6116L21.9599 18.7056L22.0714 18.4239L21.9599 18.2355H26.4252L26.3138 18.4239ZM28.0993 22.3671C28.546 22.7419 29.104 22.9295 29.662 22.9295C30.4434 22.9295 31.1133 22.6479 31.56 22.0846C31.8952 21.6154 32.118 21.1466 32.0061 20.6773C32.0061 20.0201 31.8947 19.4568 31.56 19.0808C31.1133 18.6116 30.5553 18.3299 29.7735 18.3299C28.9921 18.3299 28.4336 18.6116 27.9874 19.0808C27.6202 19.5903 27.427 20.1749 27.4289 20.7705C27.4299 21.4278 27.6532 21.991 28.0993 22.3671ZM26.5366 20.6769C26.5366 19.9253 26.8718 19.2688 27.4294 18.7988C27.9879 18.3295 28.7693 18.1423 29.662 18.1423C30.5553 18.1423 31.3366 18.3299 31.8947 18.7056C32.5641 19.1748 32.8993 19.738 32.8993 20.5829C32.8993 21.4278 32.5641 21.991 32.0061 22.4603C31.4481 22.9295 30.6667 23.2111 29.662 23.2111C28.7693 23.2111 27.9879 23.0235 27.4294 22.5547C26.8723 22.0846 26.5366 21.4278 26.5366 20.6769ZM39.0392 23.1175H38.704L34.6854 19.2688H34.5739V23.1175H34.1278V18.2355H34.4625L38.4812 21.8966V18.2355H39.0392V23.1175ZM43.504 18.2359C44.5087 19.8325 45.2905 21.0522 45.9609 21.9914L48.4169 18.2359H48.5278L49.1973 23.1179H48.4169L47.9707 19.4568C46.9661 21.0526 46.1842 22.273 45.849 23.0239H45.7371L45.1796 22.273L43.5045 19.4568L43.1702 23.1179H42.4998L43.3931 18.2359H43.504ZM54.7791 23.1175H54.333L53.4392 21.2402H51.2066L50.4253 23.1175H49.7558L52.4346 18.1423H52.6588L55.1138 23.1175H54.7791ZM53.2159 20.8645L52.3232 19.0804L51.4294 20.8645H53.2159ZM56.7889 18.5176V20.4889L57.905 20.3957C58.2393 20.3017 58.4635 20.2073 58.6864 20.1141L59.0216 19.4568C59.0216 18.8936 58.6864 18.612 58.0169 18.5179L56.7889 18.5176ZM57.9045 18.2359C59.1325 18.2359 59.691 18.6116 59.691 19.3624C59.691 19.738 59.4677 20.0197 59.1325 20.3013C58.7982 20.4889 58.463 20.5829 58.0164 20.6769L60.2481 23.1175H59.3553L57.1227 20.7701H56.7884V23.1175H56.118V18.2355L57.9045 18.2359ZM62.1465 23.1175V18.6116L60.36 18.7056V18.2355H64.602V18.7056L62.9278 18.6116V23.1175H62.1465ZM66.3889 18.2359V23.1179H65.6076V18.2359H66.3889ZM72.9745 23.1175H72.6393L68.6211 19.2688H68.5092V23.1175H68.0631V18.2355H68.2864L72.4164 21.8966V18.2355H72.975L72.9745 23.1175Z" fill="#D0D1D3"/>
<path fill-rule="evenodd" clip-rule="evenodd" d="M28.5147 4.16635L29.8034 6.66311H29.3548L28.9068 5.72105H27.8424L27.3944 6.66311H27.1146L28.4028 4.16635H28.5147ZM28.8509 5.53184L28.3469 4.63718L27.8988 5.53184H28.8509ZM31.4837 6.4743C31.3158 6.61531 31.0356 6.70972 30.7554 6.70972L30.3633 6.66271L30.0831 6.4739L30.1395 6.19148H30.1955C30.3633 6.4273 30.5876 6.56831 30.8673 6.56831C31.0351 6.56831 31.1475 6.52131 31.2594 6.3799C31.3713 6.28549 31.4272 6.14448 31.4272 6.00307C31.4272 5.86166 31.3713 5.76766 31.2594 5.67325L30.8113 5.48484C30.5871 5.43784 30.4193 5.34343 30.3633 5.29643C30.1955 5.15542 30.1395 5.01401 30.1395 4.8726C30.1395 4.63719 30.2509 4.49617 30.4193 4.35437C30.5871 4.21336 30.7554 4.16595 31.0356 4.16595C31.3158 4.16595 31.4837 4.21296 31.652 4.35437L31.5401 4.63718C31.4282 4.40177 31.2599 4.30736 30.9801 4.30736C30.8118 4.30736 30.6999 4.35437 30.644 4.44877C30.5321 4.49617 30.4761 4.59018 30.4761 4.73119C30.4761 4.8722 30.5321 5.01401 30.644 5.10801L31.148 5.24903C31.3158 5.34303 31.4841 5.43744 31.596 5.48444C31.7079 5.57885 31.7639 5.71986 31.7639 5.90827C31.7639 6.14488 31.652 6.33289 31.4837 6.4743ZM34.2283 4.30736L34.2843 4.44877L33.3882 4.40177V6.66271H32.9961V4.40177L32.0441 4.44877L32.1 4.30736L32.0441 4.21336H34.2843L34.2283 4.30736ZM35.1244 6.28589C35.3487 6.4743 35.6284 6.56831 35.9086 6.56831C36.3007 6.56831 36.6369 6.4273 36.8607 6.14448C37.0285 5.90907 37.1409 5.67325 37.0849 5.43784C37.0849 5.10802 37.029 4.8252 36.8607 4.63718C36.6364 4.40177 36.3567 4.26036 35.9646 4.26036C35.5725 4.26036 35.2923 4.40177 35.068 4.63718C34.9002 4.8726 34.7883 5.15542 34.7883 5.48484C34.7883 5.81426 34.9006 6.09748 35.1244 6.28589ZM34.3402 5.43823C34.3402 5.06141 34.5081 4.73159 34.7883 4.49617C35.068 4.26036 35.4601 4.16635 35.9086 4.16635C36.3572 4.16635 36.7488 4.26036 37.029 4.44877C37.3647 4.68419 37.533 4.96701 37.533 5.39083C37.533 5.81466 37.3651 6.09748 37.0849 6.3329C36.8047 6.56831 36.4131 6.70972 35.9086 6.70972C35.4606 6.70972 35.068 6.61531 34.7883 6.3803C34.5086 6.14488 34.3402 5.81466 34.3402 5.43823ZM40.6133 6.66271H40.4455L38.4291 4.73119H38.3731V6.66271H38.1489V4.21336H38.3167L40.3331 6.05048V4.21336H40.6129L40.6133 6.66271ZM42.854 4.21336C43.3576 5.01441 43.7506 5.62625 44.0868 6.09748L45.3195 4.21336H45.3749L45.7111 6.66271H45.3195L45.0952 4.8256C44.5907 5.62625 44.1987 6.23889 44.0303 6.61531H43.9749L43.6942 6.23889L42.8545 4.8256L42.6867 6.66271H42.3505L42.799 4.21336H42.854ZM48.5113 6.66271H48.2879L47.8399 5.72065H46.7196L46.327 6.66271H45.9908L47.3354 4.16595H47.4473L48.68 6.66271H48.5113ZM47.7275 5.53184L47.2795 4.63718L46.8314 5.53184H47.7275ZM49.5197 4.35437V5.34343L50.0801 5.29643C50.2484 5.24942 50.3599 5.20242 50.4718 5.15542L50.6401 4.8256C50.6401 4.54318 50.4718 4.40177 50.1366 4.35437H49.5197ZM50.0797 4.21336C50.6955 4.21336 50.9762 4.40177 50.9762 4.77859C50.9762 4.96701 50.8643 5.10841 50.6955 5.24982C50.5277 5.34383 50.3594 5.39083 50.1361 5.43823L51.2555 6.66311H50.8074L49.688 5.48524H49.5197V6.66311H49.1836V4.21376L50.0797 4.21336ZM52.2085 6.66271V4.40177L51.3119 4.44877V4.21336H53.4398V4.44877L52.6001 4.40177V6.66271H52.2085ZM54.3368 4.21336V6.66271H53.9447V4.21336H54.3368ZM57.6414 6.66271H57.4731L55.4571 4.73119H55.4007V6.66271H55.1765V4.21336H55.2884L57.3607 6.05048V4.21336H57.6414V6.66271Z" fill="white"/>
</svg>
